<?xml version="1.0" encoding="utf-8"?>
<!-- Generator: Adobe Illustrator 25.1.0, SVG Export Plug-In . SVG Version: 6.00 Build 0)  -->
<svg version="1.1" id="Слой_1" xmlns="http://www.w3.org/2000/svg" xmlns:xlink="http://www.w3.org/1999/xlink" x="0px" y="0px"
	 viewBox="0 0 1000 1000" style="enable-background:new 0 0 1000 1000;" xml:space="preserve">
<style type="text/css">
	.st0{fill:url(#SVGID_1_);}
</style>
<g>
	<g>
		<linearGradient id="SVGID_1_" gradientUnits="userSpaceOnUse" x1="261.8682" y1="183.9885" x2="738.1317" y2="816.0115">
			<stop  offset="0" style="stop-color:#FFF343"/>
			<stop  offset="0.3543" style="stop-color:#D7569C"/>
			<stop  offset="0.691" style="stop-color:#864F6F"/>
			<stop  offset="1" style="stop-color:#3EB5F1"/>
		</linearGradient>
		<path class="st0" d="M864.5,346c-19.9-47.1-48.5-89.4-84.8-125.8c-36.3-36.3-78.6-64.9-125.8-84.8c-48.8-20.6-100.6-31.1-154-31.1
			c-53.4,0-105.2,10.5-154,31.1c-47.1,19.9-89.4,48.5-125.8,84.8c-36.3,36.3-64.8,78.6-84.8,125.8c-20.6,48.8-31.1,100.6-31.1,154
			c0,53.4,10.5,105.2,31.1,154c19.9,47.1,48.5,89.4,84.8,125.8c36.3,36.3,78.6,64.8,125.8,84.8c48.8,20.6,100.6,31.1,154,31.1
			c53.4,0,105.2-10.5,154-31.1c47.1-19.9,89.4-48.5,125.8-84.8c36.3-36.3,64.9-78.6,84.8-125.8c20.6-48.8,31.1-100.6,31.1-154
			C895.6,446.6,885.2,394.8,864.5,346z M815,346.7c4.7,8.7,5.9,18.1,3.6,28.3c-4.1-1.9-8.3-3.7-12.6-5.3
			c-20.5-7.5-42.1-10.1-62.4-7.4c-16.3,2.1-31.4,7.4-45.1,15.8c-7.2-11.7-15.5-22.8-24.9-33.3c21.2-29.3,54.9-32.7,69.2-32.6
			C774.3,312.3,804,326.4,815,346.7z M743.5,247.5c7.4,6.5,11.8,15,13.1,25.4c-4.5-0.4-9-0.6-13.6-0.6c-21.9,0-43,4.9-61.2,14.4
			c-14.7,7.7-27.2,17.9-37.3,30.7c-10.9-8.7-22.4-16.2-34.5-22.7c9.8-35.1,40.5-49.9,54-54.8C693.4,229,726.1,232.2,743.5,247.5z
			 M564.9,198.6c24.1-20.1,55.9-28.3,77.4-19.9c9.2,3.6,16.2,10.1,21,19.4c-4.4,1.1-8.7,2.5-13,4c-20.6,7.5-38.7,19.4-52.6,34.5
			c-11.4,12.4-19.7,26.5-24.8,42.1c-13-4.2-26.3-7.4-40-9.3C529.7,232.6,553.7,207.9,564.9,198.6z M457.7,193.9
			c15.7-27.2,42.8-45.8,65.9-45.2c9.9,0.2,18.7,3.9,26.4,11c-3.7,2.6-7.4,5.3-10.9,8.3c-16.8,14-29.8,31.5-37.6,50.4
			c-6.6,15.8-9.5,32.2-8.8,48.9c-13.7,0.4-27.3,2-40.5,4.8C436.1,238.2,450.4,206.5,457.7,193.9z M355.5,226.1
			c5.5-30.9,24.6-57.6,46.5-65c9.4-3.2,18.9-2.7,28.6,1.4c-2.6,3.7-5.1,7.5-7.4,11.5c-10.9,18.9-17.2,39.7-18.1,60.2
			c-0.8,17.3,2.1,33.9,8.6,49.5c-12.5,5-24.6,11.1-36.1,18.2C350.3,275.6,352.9,240.5,355.5,226.1z M500,311.6
			c103.9,0,188.4,84.5,188.4,188.4S603.9,688.4,500,688.4c-103.9,0-188.4-84.5-188.4-188.4S396.1,311.6,500,311.6z M291.8,214.3
			c7.7-6.2,16.8-9,27.3-8.5c-1.2,4.4-2.2,8.8-3,13.3c-3.8,21.5-2.6,43.2,3.5,62.8c5.3,16.8,13.8,31.5,25.6,44.1c0,0,0,0,0,0
			c-3.4,3-6.7,6.1-9.9,9.3c-6.3,6.3-12.2,13-17.8,19.9c-35-15.2-44.7-49.3-47.2-63.9C264.9,260.4,273.7,228.7,291.8,214.3z
			 M206.5,302c5.1-8.4,12.8-14.2,22.8-17.3c0.4,4.5,0.9,9,1.7,13.5c3.8,21.5,12.4,41.5,24.8,57.8c10.8,14,24,25.1,39.5,32.9
			c-6.4,11.8-11.8,24-16,36.7c-38.3-2.2-59.1-31.1-66.5-43.9C197,354.5,194.5,321.7,206.5,302z M156.3,413.6
			c1.9-9.7,7.1-17.7,15.5-24c1.9,4.1,4,8.2,6.2,12.1c10.9,18.9,25.8,34.8,43.1,45.8c15,9.6,31.3,15.4,48.6,17.5
			c-1.7,11.5-2.6,23.2-2.6,35.1c0,1.6,0,3.2,0,4.8c-36.9,11.2-66.4-8.9-77.8-18.4C165.4,466.2,151.8,436.2,156.3,413.6z
			 M147.3,535.6c-1.5-9.8,0.6-19.1,6.3-27.9c3.2,3.2,6.5,6.3,10,9.2c16.7,14.1,36.1,23.9,56.1,28.3c17.3,3.9,34.7,3.8,51.6-0.2
			c2.6,13.2,6.3,26.1,11.1,38.5c-30.8,22.9-65.2,14.2-79.2,9.1C173.9,581.9,150.8,558.4,147.3,535.6z M180.6,653.3
			c-4.7-8.7-5.9-18.1-3.6-28.3c4.1,1.9,8.3,3.7,12.6,5.3c20.5,7.5,42.1,10.1,62.4,7.4c17.5-2.3,33.7-8.2,48.2-17.7
			c6.9,11.4,14.8,22.3,23.6,32.5c-21.1,31.9-56.3,35.4-71.1,35.4C221.4,687.8,191.7,673.6,180.6,653.3z M252.2,752.6
			c-7.4-6.5-11.8-15-13.1-25.4c4.5,0.4,9,0.6,13.6,0.6c21.9,0,43-5,61.2-14.4c15.6-8.1,28.6-19.1,39-32.8
			c10.5,8.6,21.7,16.2,33.4,22.8c-9.1,36.7-40.7,51.9-54.5,56.9C302.3,771,269.6,767.8,252.2,752.6z M430.8,801.4
			c-24.1,20.1-55.9,28.3-77.4,19.9c-9.2-3.6-16.2-10.1-21-19.4c4.4-1.1,8.7-2.5,13-4c20.5-7.5,38.7-19.4,52.6-34.5
			c11.7-12.7,20.1-27.3,25.2-43.5c12.8,4.5,26,7.8,39.5,9.9C466.3,767.2,442,792.1,430.8,801.4z M537.9,806.2
			c-15.7,27.2-42.8,45.8-65.9,45.2c-9.9-0.2-18.7-3.9-26.3-11.1c3.7-2.6,7.3-5.3,10.8-8.2c16.8-14,29.8-31.4,37.6-50.4
			c6.6-15.8,9.5-32.1,8.8-48.8c13.8-0.2,27.5-1.5,40.8-4.1C559.3,762.3,545.2,793.6,537.9,806.2z M640.2,774
			c-5.5,30.9-24.6,57.7-46.5,65.1c-9.3,3.2-18.9,2.7-28.5-1.4c2.6-3.7,5.1-7.5,7.4-11.5c10.9-18.9,17.2-39.7,18.1-60.2
			c0.8-16.8-2-32.9-8.1-48.1c12.9-4.9,25.3-10.9,37.1-18C645.3,725.9,642.7,759.8,640.2,774z M703.9,785.8c-7.7,6.2-16.8,9-27.3,8.5
			c1.2-4.4,2.2-8.8,3-13.3c3.8-21.5,2.6-43.2-3.6-62.8c-5-15.8-12.9-29.9-23.7-42.1c4.2-3.7,8.3-7.5,12.3-11.5
			c5.9-5.9,11.4-12,16.5-18.4c32.5,15.8,41.7,48.4,44.1,62.5C730.8,739.7,721.9,771.3,703.9,785.8z M789.2,698.1
			c-5.1,8.4-12.8,14.2-22.8,17.3c-0.4-4.5-0.9-9-1.7-13.5c-3.8-21.5-12.3-41.5-24.8-57.8c-10-13-22.1-23.4-36.1-31.1
			c6.8-12.2,12.4-24.9,16.9-38.1c35.7,4,55.2,31.2,62.3,43.6C798.7,645.6,801.2,678.3,789.2,698.1z M839.4,586.5
			c-1.9,9.7-7.1,17.7-15.5,24c-1.9-4.1-4-8.2-6.2-12.1c-10.9-18.9-25.8-34.8-43.1-45.8c-13.8-8.8-28.7-14.4-44.4-16.9
			c1.8-11.7,2.7-23.7,2.7-35.7c0-2,0-3.9-0.1-5.9c34.9-8.5,62.6,10.4,73.5,19.6C830.3,533.9,843.9,563.8,839.4,586.5z M842,492.3
			c-3.2-3.2-6.5-6.3-10-9.2c-16.7-14.1-36.1-23.8-56.1-28.3c-16-3.5-31.8-3.8-47.5-0.7c-2.7-13.7-6.7-27.1-11.8-40
			c29.9-19.9,62.4-11.6,75.8-6.7c29.5,10.8,52.5,34.2,56,57.1C849.9,474.2,847.7,483.5,842,492.3z"/>
	</g>
</g>
</svg>
